<?xml version="1.0" encoding="UTF-8" standalone="no"?>
<!DOCTYPE svg PUBLIC "-//W3C//DTD SVG 1.1//EN"
 "http://www.w3.org/Graphics/SVG/1.1/DTD/svg11.dtd">
<!-- Generated by graphviz version 2.44.1 (20200629.0846)
 -->
<!-- Title: dependencies Pages: 1 -->
<svg width="504pt" height="352pt"
 viewBox="0.00 0.00 504.00 352.00" xmlns="http://www.w3.org/2000/svg" xmlns:xlink="http://www.w3.org/1999/xlink">
<g id="graph0" class="graph" transform="scale(1 1) rotate(0) translate(4 348)">
<title>dependencies</title>
<polygon fill="white" stroke="transparent" points="-4,4 -4,-348 500,-348 500,4 -4,4"/>
<text text-anchor="start" x="227.01" y="-42.4" font-family="sans-serif" font-weight="bold" font-size="14.00">Legend</text>
<polygon fill="#ffffb3" stroke="transparent" points="14,-10 14,-30 34,-30 34,-10 14,-10"/>
<text text-anchor="start" x="37.63" y="-15.4" font-family="sans-serif" font-size="14.00"> &#160;Declarations</text>
<polygon fill="#8dd3c7" stroke="transparent" points="127,-10 127,-30 147,-30 147,-10 127,-10"/>
<text text-anchor="start" x="150.73" y="-15.4" font-family="sans-serif" font-size="14.00"> &#160;Module</text>
<polygon fill="#80b1d3" stroke="transparent" points="213,-10 213,-30 233,-30 233,-10 213,-10"/>
<text text-anchor="start" x="236.78" y="-15.4" font-family="sans-serif" font-size="14.00"> &#160;Bootstrap</text>
<polygon fill="#fdb462" stroke="transparent" points="310,-10 310,-30 330,-30 330,-10 310,-10"/>
<text text-anchor="start" x="333.67" y="-15.4" font-family="sans-serif" font-size="14.00"> &#160;Providers</text>
<polygon fill="#fb8072" stroke="transparent" points="406,-10 406,-30 426,-30 426,-10 406,-10"/>
<text text-anchor="start" x="429.73" y="-15.4" font-family="sans-serif" font-size="14.00"> &#160;Exports</text>
<g id="clust1" class="cluster">
<title>cluster_AppModule</title>
<polygon fill="none" stroke="black" stroke-dasharray="1,5" points="207,-146 207,-336 343,-336 343,-146 207,-146"/>
</g>
<g id="clust3" class="cluster">
<title>cluster_AppModule_imports</title>
<polygon fill="none" stroke="black" points="215,-154 215,-271 323,-271 323,-154 215,-154"/>
</g>
<g id="clust7" class="cluster">
<title>cluster_AuthModule</title>
<polygon fill="none" stroke="black" stroke-dasharray="1,5" points="63,-70 63,-138 455,-138 455,-70 63,-70"/>
</g>
<g id="clust10" class="cluster">
<title>cluster_AuthModule_exports</title>
<polygon fill="none" stroke="black" points="345,-78 345,-130 447,-130 447,-78 345,-78"/>
</g>
<g id="clust12" class="cluster">
<title>cluster_AuthModule_providers</title>
<polygon fill="none" stroke="black" points="71,-78 71,-130 337,-130 337,-78 71,-78"/>
</g>
<g id="clust13" class="cluster">
<title>cluster_TasksModule</title>
<polygon fill="none" stroke="black" stroke-dasharray="1,5" points="41,-146 41,-214 199,-214 199,-146 41,-146"/>
</g>
<g id="clust18" class="cluster">
<title>cluster_TasksModule_providers</title>
<polygon fill="none" stroke="black" points="49,-154 49,-206 191,-206 191,-154 49,-154"/>
</g>
<!-- AuthModule -->
<g id="node1" class="node">
<title>AuthModule</title>
<polygon fill="#8dd3c7" stroke="black" points="313.55,-198 310.55,-202 289.55,-202 286.55,-198 226.45,-198 226.45,-162 313.55,-162 313.55,-198"/>
<text text-anchor="middle" x="270" y="-175.8" font-family="Times,serif" font-size="14.00">AuthModule</text>
</g>
<!-- TasksModule -->
<g id="node2" class="node">
<title>TasksModule</title>
<polygon fill="#8dd3c7" stroke="black" points="315.21,-263 312.21,-267 291.21,-267 288.21,-263 222.79,-263 222.79,-227 315.21,-227 315.21,-263"/>
<text text-anchor="middle" x="269" y="-240.8" font-family="Times,serif" font-size="14.00">TasksModule</text>
</g>
<!-- AuthModule&#45;&gt;TasksModule -->
<g id="edge6" class="edge">
<title>AuthModule&#45;&gt;TasksModule</title>
<path fill="none" stroke="black" d="M270,-198.11C270,-198.11 270,-216.99 270,-216.99"/>
<polygon fill="black" stroke="black" points="266.5,-216.99 270,-226.99 273.5,-216.99 266.5,-216.99"/>
</g>
<!-- AppModule -->
<g id="node3" class="node">
<title>AppModule</title>
<polygon fill="#8dd3c7" stroke="black" points="322.66,-328 319.66,-332 298.66,-332 295.66,-328 239.34,-328 239.34,-292 322.66,-292 322.66,-328"/>
<text text-anchor="middle" x="281" y="-305.8" font-family="Times,serif" font-size="14.00">AppModule</text>
</g>
<!-- AuthModule&#45;&gt;AppModule -->
<g id="edge1" class="edge">
<title>AuthModule&#45;&gt;AppModule</title>
<path fill="none" stroke="black" d="M313.73,-186C316.95,-186 318.97,-186 318.97,-186 318.97,-186 318.97,-281.97 318.97,-281.97"/>
<polygon fill="black" stroke="black" points="315.47,-281.97 318.97,-291.97 322.47,-281.97 315.47,-281.97"/>
</g>
<!-- JwtStratgey  -->
<g id="node4" class="node">
<title>JwtStratgey </title>
<polygon fill="#fb8072" stroke="black" points="438.6,-122 353.4,-122 353.4,-86 438.6,-86 438.6,-122"/>
<text text-anchor="middle" x="396" y="-99.8" font-family="Times,serif" font-size="14.00">JwtStratgey </text>
</g>
<!-- AuthModule&#45;&gt;JwtStratgey  -->
<g id="edge3" class="edge">
<title>AuthModule&#45;&gt;JwtStratgey </title>
<path fill="none" stroke="black" stroke-dasharray="5,2" d="M313.72,-174C350.11,-174 396,-174 396,-174 396,-174 396,-132.03 396,-132.03"/>
<polygon fill="black" stroke="black" points="399.5,-132.03 396,-122.03 392.5,-132.03 399.5,-132.03"/>
</g>
<!-- TasksModule&#45;&gt;AppModule -->
<g id="edge2" class="edge">
<title>TasksModule&#45;&gt;AppModule</title>
<path fill="none" stroke="black" d="M277.14,-263.11C277.14,-263.11 277.14,-281.99 277.14,-281.99"/>
<polygon fill="black" stroke="black" points="273.64,-281.99 277.14,-291.99 280.64,-281.99 273.64,-281.99"/>
</g>
<!-- AuthService -->
<g id="node5" class="node">
<title>AuthService</title>
<ellipse fill="#fdb462" stroke="black" cx="270" cy="-104" rx="59.11" ry="18"/>
<text text-anchor="middle" x="270" y="-99.8" font-family="Times,serif" font-size="14.00">AuthService</text>
</g>
<!-- AuthService&#45;&gt;AuthModule -->
<g id="edge4" class="edge">
<title>AuthService&#45;&gt;AuthModule</title>
<path fill="none" stroke="black" d="M270,-122.01C270,-122.01 270,-151.85 270,-151.85"/>
<polygon fill="black" stroke="black" points="266.5,-151.85 270,-161.85 273.5,-151.85 266.5,-151.85"/>
</g>
<!-- JwtStratgey -->
<g id="node6" class="node">
<title>JwtStratgey</title>
<ellipse fill="#fdb462" stroke="black" cx="136" cy="-104" rx="56.76" ry="18"/>
<text text-anchor="middle" x="136" y="-99.8" font-family="Times,serif" font-size="14.00">JwtStratgey</text>
</g>
<!-- JwtStratgey&#45;&gt;AuthModule -->
<g id="edge5" class="edge">
<title>JwtStratgey&#45;&gt;AuthModule</title>
<path fill="none" stroke="black" d="M187.57,-111.57C187.57,-130.79 187.57,-180 187.57,-180 187.57,-180 216.37,-180 216.37,-180"/>
<polygon fill="black" stroke="black" points="216.37,-183.5 226.37,-180 216.37,-176.5 216.37,-183.5"/>
</g>
<!-- TasksService -->
<g id="node7" class="node">
<title>TasksService</title>
<ellipse fill="#fdb462" stroke="black" cx="120" cy="-180" rx="62.54" ry="18"/>
<text text-anchor="middle" x="120" y="-175.8" font-family="Times,serif" font-size="14.00">TasksService</text>
</g>
<!-- TasksService&#45;&gt;TasksModule -->
<g id="edge7" class="edge">
<title>TasksService&#45;&gt;TasksModule</title>
<path fill="none" stroke="black" d="M120,-198.11C120,-217.34 120,-245 120,-245 120,-245 212.67,-245 212.67,-245"/>
<polygon fill="black" stroke="black" points="212.67,-248.5 222.67,-245 212.67,-241.5 212.67,-248.5"/>
</g>
</g>
</svg>
